<svg width="38" height="40" viewBox="0 0 38 40" fill="none" xmlns="http://www.w3.org/2000/svg">
<path d="M6.10001 40C4.64167 40 3.40209 39.4896 2.38126 38.4688C1.36042 37.4479 0.850006 36.2083 0.850006 34.75V28.5H7.20001V0L10.19 3L13.18 0L16.17 3L19.16 0L22.15 3L25.15 0L28.15 3L31.15 0L34.15 3L37.15 0V34.75C37.15 36.2083 36.6396 37.4479 35.6188 38.4688C34.5979 39.4896 33.3583 40 31.9 40H6.10001ZM31.9 37C32.5667 37 33.1083 36.7917 33.525 36.375C33.9417 35.9583 34.15 35.4167 34.15 34.75V5H10.2V28.5H29.65V34.75C29.65 35.4167 29.8583 35.9583 30.275 36.375C30.6917 36.7917 31.2333 37 31.9 37ZM12.85 12.9V9.9H24.85V12.9H12.85ZM12.85 19.6V16.6H24.85V19.6H12.85ZM29.5 12.9C29.1 12.9 28.75 12.75 28.45 12.45C28.15 12.15 28 11.8 28 11.4C28 11 28.15 10.65 28.45 10.35C28.75 10.05 29.1 9.9 29.5 9.9C29.9 9.9 30.25 10.05 30.55 10.35C30.85 10.65 31 11 31 11.4C31 11.8 30.85 12.15 30.55 12.45C30.25 12.75 29.9 12.9 29.5 12.9ZM29.5 19.35C29.1 19.35 28.75 19.2 28.45 18.9C28.15 18.6 28 18.25 28 17.85C28 17.45 28.15 17.1 28.45 16.8C28.75 16.5 29.1 16.35 29.5 16.35C29.9 16.35 30.25 16.5 30.55 16.8C30.85 17.1 31 17.45 31 17.85C31 18.25 30.85 18.6 30.55 18.9C30.25 19.2 29.9 19.35 29.5 19.35ZM6.05001 37H26.65V31.5H3.85001V34.75C3.85001 35.4167 4.06084 35.9583 4.48251 36.375C4.90417 36.7917 5.42667 37 6.05001 37Z" fill="black"/>
</svg>
