<svg width="36" height="36" viewBox="0 0 36 36" fill="none" xmlns="http://www.w3.org/2000/svg">
<path d="M29 35.5C27.0667 35.5 25.4167 34.8167 24.05 33.45C22.6833 32.0833 22 30.4333 22 28.5C22 26.5667 22.6833 24.9167 24.05 23.55C25.4167 22.1833 27.0667 21.5 29 21.5C30.9333 21.5 32.5833 22.1833 33.95 23.55C35.3167 24.9167 36 26.5667 36 28.5C36 30.4333 35.3167 32.0833 33.95 33.45C32.5833 34.8167 30.9333 35.5 29 35.5ZM28.9883 32.5C30.0961 32.5 31.0417 32.1122 31.825 31.3367C32.6083 30.5613 33 29.6196 33 28.5117C33 27.4039 32.6122 26.4583 31.8367 25.675C31.0613 24.8917 30.1196 24.5 29.0117 24.5C27.9039 24.5 26.9583 24.8878 26.175 25.6633C25.3917 26.4387 25 27.3804 25 28.4883C25 29.5961 25.3878 30.5417 26.1633 31.325C26.9387 32.1083 27.8804 32.5 28.9883 32.5ZM0 30V27H18V30H0ZM7 14.5C5.06667 14.5 3.41667 13.8167 2.05 12.45C0.683333 11.0833 0 9.43333 0 7.5C0 5.56667 0.683333 3.91667 2.05 2.55C3.41667 1.18333 5.06667 0.5 7 0.5C8.93333 0.5 10.5833 1.18333 11.95 2.55C13.3167 3.91667 14 5.56667 14 7.5C14 9.43333 13.3167 11.0833 11.95 12.45C10.5833 13.8167 8.93333 14.5 7 14.5ZM6.98825 11.5C8.09608 11.5 9.04167 11.1122 9.825 10.3367C10.6083 9.56128 11 8.61962 11 7.51175C11 6.40392 10.6122 5.45833 9.83675 4.675C9.06128 3.89167 8.11962 3.5 7.01175 3.5C5.90392 3.5 4.95833 3.88775 4.175 4.66325C3.39167 5.43872 3 6.38038 3 7.48825C3 8.59608 3.38775 9.54167 4.16325 10.325C4.93872 11.1083 5.88038 11.5 6.98825 11.5ZM18 9V6H36V9H18Z" fill="black"/>
</svg>
