<svg width="44" height="44" viewBox="0 0 44 44" fill="none" xmlns="http://www.w3.org/2000/svg">
<path d="M20.0178 3.99998C21.4059 3.99998 22.6917 4.11664 23.875 4.34998C25.0583 4.58331 26.4833 5.01664 28.15 5.64998L24.05 7.44998C23.4167 7.28331 22.8167 7.16664 22.25 7.09998C21.6833 7.03331 20.9333 6.99998 20 6.99998C19.3333 6.99998 18.575 7.04998 17.725 7.14998C16.875 7.24998 16.1 7.41664 15.4 7.64998C17.9 10.4833 20.4583 12.7666 23.075 14.5C25.6917 16.2333 29.35 16.9 34.05 16.5L35.2 19.35C30.7667 19.9166 26.9083 19.5 23.625 18.1C20.3417 16.7 17.5167 14.6333 15.15 11.9C14.0167 14.6 12.3917 16.9583 10.275 18.975C8.15833 20.9916 5.73333 22.55 3 23.65C3 28.4833 4.65 32.5833 7.95 35.95C11.25 39.3166 15.2667 41 20 41C24.7667 41 28.7917 39.3416 32.075 36.025C35.3583 32.7083 37 28.7 37 24C37 23.2666 36.9583 22.6083 36.875 22.025L36.65 20.45L38.45 16.2C38.9833 17.6333 39.375 18.9166 39.625 20.05C39.875 21.1833 40 22.5 40 24C40 26.7666 39.4833 29.3666 38.45 31.8C37.4167 34.2333 36 36.35 34.2 38.15C32.4 39.95 30.2833 41.375 27.85 42.425C25.4167 43.475 22.8 44 20 44C17.2 44 14.5833 43.4833 12.15 42.45C9.71667 41.4166 7.6 40 5.8 38.2C4 36.4 2.58333 34.2833 1.55 31.85C0.516667 29.4166 0 26.8 0 24C0 21.2 0.516667 18.5833 1.55 16.15C2.58333 13.7166 4 11.6 5.8 9.79998C7.6 7.99998 9.71667 6.58331 12.15 5.54998C14.5833 4.51664 17.2059 3.99998 20.0178 3.99998ZM13.7113 23.45C14.4704 23.45 15.1083 23.7121 15.625 24.2362C16.1417 24.7604 16.4 25.4021 16.4 26.1612C16.4 26.9204 16.1379 27.5583 15.6138 28.075C15.0896 28.5916 14.4479 28.85 13.6888 28.85C12.9296 28.85 12.2917 28.5879 11.775 28.0637C11.2583 27.5395 11 26.8979 11 26.1387C11 25.3796 11.2621 24.7416 11.7863 24.225C12.3105 23.7083 12.9521 23.45 13.7113 23.45ZM26.3613 23.45C27.1204 23.45 27.7583 23.7121 28.275 24.2362C28.7917 24.7604 29.05 25.4021 29.05 26.1612C29.05 26.9204 28.7879 27.5583 28.2638 28.075C27.7396 28.5916 27.0979 28.85 26.3388 28.85C25.5796 28.85 24.9417 28.5879 24.425 28.0637C23.9083 27.5395 23.65 26.8979 23.65 26.1387C23.65 25.3796 23.9121 24.7416 24.4363 24.225C24.9605 23.7083 25.6021 23.45 26.3613 23.45ZM36.2 0.849976L38.4 5.94998L43.35 7.99998L38.4 10.1L36.2 15.2L33.95 10.1L29 7.99998L33.95 5.94998L36.2 0.849976ZM3.5 20C5.1 19.4 6.925 18.05 8.975 15.95C11.025 13.85 12.4833 11.3 13.35 8.29998C10.45 9.59998 8.25833 11.25 6.775 13.25C5.29167 15.25 4.2 17.5 3.5 20Z" fill="white"/>
</svg>
